<?xml version="1.0" encoding="UTF-8" standalone="no"?>
<svg
   version="1.1"
   id="Layer_1"
   x="0px"
   y="0px"
   width="100%"
   viewBox="0 0 928 928"
   enable-background="new 0 0 928 928"
   xml:space="preserve"
   sodipodi:docname="vite.svg"
   inkscape:version="1.4.2 (f4327f4, 2025-05-13)"
   xmlns:inkscape="http://www.inkscape.org/namespaces/inkscape"
   xmlns:sodipodi="http://sodipodi.sourceforge.net/DTD/sodipodi-0.dtd"
   xmlns="http://www.w3.org/2000/svg"
   xmlns:svg="http://www.w3.org/2000/svg"><defs
   id="defs12" /><sodipodi:namedview
   id="namedview12"
   pagecolor="#ffffff"
   bordercolor="#000000"
   borderopacity="0.25"
   inkscape:showpageshadow="2"
   inkscape:pageopacity="0.0"
   inkscape:pagecheckerboard="0"
   inkscape:deskcolor="#d1d1d1"
   inkscape:zoom="0.63471977"
   inkscape:cx="122.88888"
   inkscape:cy="533.30622"
   inkscape:window-width="1920"
   inkscape:window-height="1051"
   inkscape:window-x="1691"
   inkscape:window-y="-9"
   inkscape:window-maximized="1"
   inkscape:current-layer="layer2" />












<g
   inkscape:groupmode="layer"
   id="layer2"
   inkscape:label="capa in"><ellipse
     style="fill:#ffffff;fill-opacity:1"
     id="path13"
     cx="415.93158"
     cy="460.04553"
     rx="86.652412"
     ry="92.954407" /><ellipse
     style="fill:#ffffff;fill-opacity:1"
     id="path13-9"
     cx="608.51569"
     cy="435.13962"
     rx="86.652412"
     ry="92.954407" /><ellipse
     style="fill:#ffffff;fill-opacity:1;stroke-width:1.82011"
     id="path13-9-8"
     cx="517.16528"
     cy="551.0741"
     rx="196.9373"
     ry="135.49286" /></g><path
   fill="#000000"
   opacity="1"
   stroke="none"
   d="m 248.84921,385.11698 c 0.0244,-3.60093 -0.10784,-6.65074 0.10034,-9.67364 0.66449,-9.64693 9.11818,-16.0129 17.81214,-13.59451 4.0213,1.11861 5.67658,3.10349 3.81266,7.78567 -2.35801,5.92331 -4.75982,11.95546 -6.06588,18.19873 -1.84388,8.8146 -7.82373,10.64991 -14.79936,12.12568 -1.62094,-4.87876 -0.54703,-9.63564 -0.85991,-14.84193 z"
   id="path11"
   style="fill:#001e24;fill-opacity:1;stroke-width:1.10638" /><g
   inkscape:groupmode="layer"
   id="layer1"
   inkscape:label="capa su"><path
     fill="#000000"
     opacity="1"
     stroke="none"
     d="m 251.02481,629.78316 c -1.76122,-6.11071 -1.32898,-11.85605 -1.45851,-18.25151 5.74464,1.42201 9.75537,4.62051 14.2241,6.6318 2.93493,1.32107 5.73615,2.97984 8.61181,4.45481 6.69023,3.43155 7.11803,6.29318 1.75959,11.9176 -6.69486,7.02721 -17.67369,4.96451 -23.13699,-4.7527 z"
     id="path12"
     style="fill:#001e24;fill-opacity:1;stroke-width:1.10638" /><path
     fill="#000000"
     opacity="1"
     stroke="none"
     d="m 698.04196,845.63292 c -22.4228,-15.67563 -43.77035,-32.22358 -63.8792,-50.54434 -2.60892,-2.37687 -4.87092,-2.37386 -7.77109,-0.99069 -17.86102,8.51762 -36.75181,13.17684 -55.89701,16.83747 -1.04589,0.19994 -2.12552,0.25212 -3.19027,0.2603 -0.50239,0.003 -1.00658,-0.25961 -1.58882,-0.42419 -0.18949,-2.88819 2.20084,-3.21164 3.67041,-4.214 5.29238,-3.6097 10.23705,-7.57171 14.09095,-12.99087 7.51208,-10.56308 5.69643,-21.85353 -5.04898,-28.57211 -7.379,-4.61373 -15.00779,-8.78029 -22.60056,-12.9903 -58.37673,-32.36896 -117.69333,-62.71804 -176.55544,-94.04404 -34.45825,-18.33836 -68.915,-36.68042 -103.4305,-54.89485 -4.3202,-2.2799 -6.71685,-5.46052 -6.68803,-10.61825 0.0318,-5.6773 -2.36408,-8.66385 -7.86423,-7.9271 -14.06482,1.88428 -26.31495,-3.20276 -38.70822,-9.80354 -29.8229,-15.88401 -59.81173,-31.41348 -89.33124,-47.94216 -13.90701,-7.78688 -14.49869,-12.19348 -3.34046,-24.14322 25.74164,-27.56761 55.98262,-48.19554 88.49632,-65.2658 16.96553,-8.90715 34.36143,-16.75887 52.03049,-23.9025 3.50225,-1.41597 5.41582,-3.55217 6.49877,-7.45496 4.16189,-14.99809 9.34726,-29.61953 15.57321,-43.77624 1.78773,-4.06498 1.71396,-7.1043 -0.71135,-10.99312 -28.68542,-45.99561 -57.03219,-92.22898 -83.78101,-139.55797 -5.1638,-9.13678 -10.37126,-18.24957 -14.59433,-27.9494 -0.67699,-1.55489 -1.4332,-3.08748 -1.93854,-4.70693 -0.90185,-2.89028 -2.02814,-5.91562 0.34897,-8.61367 2.29043,-2.59966 5.15541,-2.20672 7.97666,-1.30117 11.93588,3.83121 23.91238,7.52945 35.77825,11.59642 48.00997,16.45529 95.32412,35.01952 142.47118,54.08491 2.48647,1.00546 5.04856,1.79684 8.26537,2.93117 -1.17783,-5.66123 -4.56412,-9.36156 -6.70798,-13.71517 -1.78262,-3.62007 -5.45138,-7.12116 -3.52481,-11.37692 2.2464,-4.96233 7.28732,-2.98377 11.15133,-2.83184 9.07444,0.35681 18.16905,1.21102 26.79522,4.50868 3.30561,1.2637 5.17836,0.37447 7.3208,-2.30091 5.33012,-6.65596 10.63513,-13.37554 16.88532,-19.09758 1.94442,-1.78007 3.76709,-4.82154 6.80747,-3.41981 2.99989,1.38305 3.03954,4.8555 3.38057,7.88289 0.14656,1.30099 -0.0511,2.71729 1.46949,3.84437 2.70681,-0.10351 4.35262,-2.55653 6.29653,-4.32736 21.4372,-19.52844 42.68081,-39.31407 65.81382,-56.57905 2.47805,-1.84945 5.05897,-3.58915 7.74407,-5.06249 5.42057,-2.97424 9.34541,-1.75724 11.61009,4.34681 2.62047,7.0629 4.44069,14.46402 6.65438,21.70218 2.21473,7.24148 4.51649,14.45253 6.72032,21.69777 1.08792,3.57653 3.00219,4.38493 6.07195,2.52616 5.13149,-3.10717 10.5659,-5.50648 16.12637,-7.57694 6.31385,-2.35095 8.77474,-0.23621 8.04185,6.84811 -0.1722,1.66459 -0.98224,3.3141 -0.0795,5.17171 2.13777,1.18425 4.03652,-0.28311 5.94531,-1.01214 13.76354,-5.25663 27.79836,-9.56483 41.89792,-13.61555 8.54392,-2.45462 10.72648,-0.42235 9.32336,8.68983 -1.26481,8.21379 -3.03412,16.3386 -4.8076,25.6992 10.07916,-5.99075 19.35905,-11.44464 28.58523,-17.00053 45.80643,-27.58403 91.77161,-54.85137 138.85682,-79.88737 2.86544,-1.52365 5.79368,-2.97681 8.81174,-4.09457 7.51189,-2.78209 10.62237,0.19725 8.84862,8.54616 -1.66513,7.83751 -4.66386,15.21893 -7.66854,22.53349 -18.78276,45.72583 -38.15688,91.16229 -58.55778,136.09247 -5.37149,11.82983 -10.41734,23.83269 -15.96586,35.56481 -2.04901,4.33245 -1.44933,6.72063 2.37217,9.27016 11.34502,7.56895 22.31993,15.73929 32.6709,24.82268 4.13496,3.62857 8.38029,7.229 10.66728,12.60433 1.93798,4.55471 0.84393,6.85606 -3.77322,7.74632 -3.48717,0.67238 -7.06364,0.81211 -10.59932,1.19952 -2.35142,0.2576 -5.81405,-0.86754 -6.1805,2.70468 -0.3605,3.51372 0.58068,7.30911 4.3892,8.91532 1.48673,0.62703 3.04769,1.05439 4.57959,1.5562 49.09565,16.08173 96.25931,36.80361 139.5924,66.69047 3.43548,2.36952 6.69446,5.049 9.92655,7.73454 2.71558,2.25651 3.12784,4.88623 0.68439,7.8141 -2.37203,2.84224 -4.55263,5.86985 -6.96378,8.67176 -2.10037,2.4408 -1.97218,4.47664 0.064,6.95547 2.58139,3.14279 4.70793,6.71054 7.25145,9.89276 3.51969,4.40357 2.48994,7.66731 -1.56324,10.89198 -5.18148,4.12222 -10.7616,7.51679 -16.52376,10.49083 -4.38319,2.2623 -5.52751,4.98215 -3.83411,9.94351 2.03452,5.96048 0.48055,9.25903 -5.076,8.68065 -19.48771,-2.02862 -36.35872,7.89481 -54.35983,12.5434 -16.9791,4.3846 -33.99158,8.48605 -51.47414,9.64825 -4.27288,0.28412 -5.7523,2.13438 -5.93546,6.69943 -1.05027,26.17637 -4.23613,51.99171 -12.6343,76.78903 -0.92624,2.7349 -0.67898,5.09333 0.30639,7.69417 15.2273,40.19384 21.04239,82.11359 19.73777,125.28078 -0.42004,13.89884 -1.12493,27.79281 -1.97042,41.67006 -0.45842,7.52568 -0.88001,10.71824 -9.13244,8.77409 -1.71232,-0.40339 -3.56491,-0.0672 -5.32998,-0.28469 -3.45473,-0.42538 -5.2341,1.14167 -6.05452,4.75591 -1.55352,6.84439 -3.37385,13.61982 -5.1121,20.41553 -1.26565,4.9483 -3.89461,6.91438 -8.76926,5.02703 -6.36163,-2.46302 -12.88482,-4.44853 -19.24423,-6.91739 -4.19083,-1.62699 -7.00295,-1.12869 -8.78975,3.80481 -1.34182,3.70491 -3.47472,7.07863 -5.21921,10.62036 -2.0851,4.23321 -4.87908,5.13441 -8.73753,2.47712 -5.54082,-3.81594 -11.17179,-7.48188 -17.09276,-11.42843 M 520.26893,664.20624 c 22.29323,-0.30019 43.70835,-5.68233 64.8711,-12.66637 3.68052,-1.21459 5.1916,-3.22896 4.90466,-7.39523 -0.86304,-12.53427 -1.39848,-25.09438 -2.24672,-37.62997 -0.97623,-14.42748 -2.15592,-28.83911 -3.23483,-43.2587 -0.35273,-4.71406 -2.09639,-6.86563 -6.9613,-5.48042 -10.6663,3.03698 -21.53241,5.13441 -32.44113,6.92291 -29.54762,4.84428 -59.19149,5.61392 -88.90561,2.08519 -6.47019,-0.76832 -8.1189,0.40079 -7.77723,7.56577 1.21507,25.48175 3.0804,50.91474 5.43289,76.30644 0.34432,3.71666 2.15354,5.51955 5.56328,6.52471 19.57495,5.77112 39.52403,7.60649 60.79489,7.02567 m 52.41141,-169.21315 c 18.74424,16.39676 39.23703,20.13995 61.16937,8.51207 13.74016,-7.28461 22.23037,-20.2147 27.70617,-35.07404 11.99209,-32.54253 9.48355,-64.50395 -4.76706,-95.65395 -0.88543,-1.93556 -1.51069,-4.37977 -4.28854,-4.88455 -0.58909,0.55334 -1.34052,1.08239 -1.88243,1.79419 -10.34894,13.593 -20.64716,27.23024 -31.02855,40.7947 -1.67688,2.19109 -2.42387,4.43777 -2.34567,7.30189 0.19765,7.24025 0.41716,14.50325 0.0991,21.73051 -0.46182,10.49678 -1.55052,20.97434 -6.78162,30.2364 -4.92163,8.71411 -12.71999,9.72024 -19.69873,2.80849 -3.19521,-3.16457 -5.22365,-7.21292 -7.3019,-11.20941 -1.64822,-3.16965 -3.69632,-3.54082 -5.85166,-0.79724 -4.38384,5.58035 -9.65318,10.1477 -14.68258,14.98185 -2.33164,2.24109 -2.42949,4.35222 -0.75613,6.96749 2.82797,4.41973 5.80707,8.68186 10.41016,12.4916 M 360.87849,460.77912 c 3.06995,14.70885 8.46171,28.33548 17.13198,40.26432 25.93374,35.68042 73.97365,29.64364 91.34224,-11.42162 0.76044,-1.79794 2.55474,-4.05495 0.46266,-5.69589 -6.09084,-4.7773 -12.42098,-9.20518 -18.55554,-13.69561 -2.2315,2.07246 -2.41456,4.44963 -3.11136,6.56774 -1.60827,4.88864 -3.52735,9.56518 -7.13934,13.23731 -4.4765,4.55099 -8.20183,5.05902 -13.47743,1.60902 -4.44083,-2.90404 -7.14485,-7.37075 -9.31606,-12.24657 -6.009,-13.49454 -7.88871,-28.01553 -8.80486,-42.68987 -0.2481,-3.97422 -1.43769,-6.69732 -4.2308,-9.25589 -11.78692,-10.79729 -22.81719,-22.44869 -33.31192,-34.68059 -4.29569,-5.00688 -5.90032,-4.72932 -7.80259,1.61955 -6.43869,21.48963 -7.36143,43.32594 -3.18698,66.3881 M 654.1002,569.23318 c -1.76219,-13.23195 -0.89419,-26.79862 -3.61348,-40.10637 -1.52146,0.31716 -2.29137,0.29453 -2.88666,0.62854 -16.29524,9.14182 -33.29302,16.4278 -50.8816,22.16496 -3.28469,1.07152 -4.28841,3.50225 -3.97027,7.03064 1.16155,12.88006 2.21586,25.77132 3.29894,38.65936 1.13256,13.47528 2.08072,26.95642 2.29973,40.49871 0.10013,6.18741 1.70905,7.02526 6.96011,4.42769 17.28172,-8.54891 33.10302,-19.36209 46.50219,-34.02507 2.41401,-2.64172 3.67237,-5.33379 3.47582,-9.08538 -0.50809,-9.69833 -0.78393,-19.4107 -1.18478,-30.19308 M 440.887,599.22234 c -0.47058,-9.50895 -1.14169,-19.01335 -1.32717,-28.52866 -0.0927,-4.75905 -2.05649,-6.89412 -6.19245,-7.58504 -14.83915,-2.47886 -28.97726,-7.66247 -43.04708,-13.0483 -7.03369,-2.69243 -8.59282,-1.88924 -8.07932,5.98727 1.22415,18.77715 2.2446,37.57644 4.81119,56.23805 0.6422,4.66949 2.09259,8.1864 5.57633,11.08619 13.61413,11.33223 28.5765,20.01689 44.69312,26.46453 6.23386,2.49404 7.87704,1.20664 7.09209,-5.75217 -1.64222,-14.55918 -2.6943,-29.16285 -3.52671,-44.86187 m 223.54073,-80.34996 c -3.37875,1.80338 -5.7589,3.95491 -5.22476,8.77477 2.17968,19.66928 3.37086,39.43048 4.25858,59.21257 0.0808,1.80269 -0.14483,3.80742 2.05821,5.30257 21.79695,-29.47219 31.7459,-63.43033 34.67257,-100.52814 -12.10805,8.65257 -22.90783,18.77556 -35.7646,27.23823 m -329.81656,2.95412 c -0.0676,0.55764 -0.29155,1.15399 -0.18049,1.66734 6.30851,29.14856 18.26069,55.22887 36.97854,77.59971 1.13628,1.3581 2.15947,3.12878 4.39294,3.00032 1.71252,-1.34685 1.41667,-3.31147 1.12477,-5.15419 -2.65503,-16.76195 -2.94433,-33.72935 -3.72086,-50.64345 -0.19011,-4.141 -1.40175,-6.60366 -4.94395,-8.41633 -9.96931,-5.10165 -19.56931,-10.95339 -28.88719,-17.32632 -1.28748,-0.88056 -2.50644,-2.32951 -4.76376,-0.72708 m 93.62766,-64.37978 c 0.7062,2.15685 1.21044,4.42462 2.17587,6.43916 0.95243,1.98737 1.45584,5.32192 4.80267,3.6211 2.2128,-1.12455 4.42624,-8.15289 2.8989,-9.50643 -3.17145,-2.81057 -5.89108,-6.4771 -10.06389,-7.72104 -1.73687,2.40956 -0.0137,4.31449 0.18645,7.16721 m 167.06092,-15.991 c -4.85591,5.42849 -4.45982,7.8543 2.15846,11.43235 3.28333,-4.56444 3.98881,-9.49836 2.65625,-15.23294 -2.2684,0.62528 -3.18698,2.07741 -4.81471,3.80059 z"
     id="path1"
     sodipodi:nodetypes="cscsscssscssscssssscscssssccscsssssssscssssssssscssscsssscssssssssscsssssssssssssscssscsssssssccscssssssscccsssccsssssssssccssscssssssssccccscsssssccssssscssccsscccccsccsssccssscccccc"
     style="fill:#005664;fill-opacity:1;stroke-width:1.10638" /><path
     fill="#000000"
     opacity="1"
     stroke="none"
     d="m 293.81458,749.07807 c -0.56501,-36.9215 4.87356,-72.54206 10.83968,-107.83049 2.3145,-0.92789 3.64487,0.25569 5.0262,0.99621 16.72643,8.96746 33.38971,18.07219 50.19059,26.87638 3.77932,1.98055 5.01178,4.59753 5.00607,8.94614 -0.048,36.62299 0.0307,73.2464 0.17216,109.86917 0.0483,12.51421 6.53021,21.66086 16.60845,24.18911 5.07892,1.27398 9.4765,-0.40051 13.70799,-3.11383 17.8828,-11.46637 35.74506,-22.96963 53.65501,-34.38716 3.5155,-2.24113 7.16034,-4.26849 10.83451,-6.20062 3.60101,-1.89371 7.53414,-2.81867 11.44146,-1.77349 13.732,3.67286 27.70755,4.92861 41.78814,5.487 2.27088,0.0902 4.53711,0.88157 6.76367,1.51703 2.17994,0.62218 4.21276,0.82784 5.98291,-1.02975 3.59351,-3.7708 7.33545,-2.39077 12.46557,-0.17919 -4.97698,3.64986 -9.0748,6.79884 -13.3027,9.73313 -47.38374,32.88683 -94.14726,66.80034 -142.26571,98.47083 -1.66947,1.09877 -3.4004,2.09617 -5.03011,3.25754 -3.74273,2.66707 -6.32111,1.38904 -8.16133,-2.61922 -1.41423,-3.0803 -2.95129,-6.10519 -4.20314,-9.25954 -1.50824,-3.80049 -3.50213,-4.55428 -7.0798,-2.65212 -5.89356,3.13339 -12.03294,5.73682 -18.0653,8.5719 -4.64468,2.1828 -7.91701,0.86139 -9.7435,-4.29727 -2.45977,-6.94708 -5.13605,-13.81515 -7.34404,-20.85208 -1.23275,-3.92896 -3.19471,-5.69266 -7.05621,-5.01284 -1.3979,0.24611 -2.84798,0.1293 -4.26684,0.26616 -9.14075,0.88109 -10.26023,-0.11659 -10.48836,-9.71314 -0.36745,-15.45682 -2.90386,-30.66807 -4.55828,-45.97586 -1.53492,-14.20149 -2.77645,-28.40982 -2.91709,-43.284 z"
     id="path2"
     style="fill:#003b45;fill-opacity:1;stroke-width:1.10638" /><path
     fill="#000000"
     opacity="1"
     stroke="none"
     d="m 315.15172,176.49029 c -0.27872,-26.45352 -0.62692,-52.37643 -0.78306,-78.300714 -0.0528,-8.768001 0.93254,-17.451028 2.87966,-26.01556 6.03099,-26.527492 31.0069,-41.208474 55.1992,-32.306305 8.32086,3.061862 15.72906,8.040866 23.14901,12.958577 29.82881,19.769642 59.6561,39.542079 89.42402,59.416342 2.2067,1.47327 6.37389,2.64164 4.88768,6.26371 -1.40188,3.41653 -5.23393,2.15772 -8.20355,1.44744 -10.04732,-2.40318 -18.50208,0.36867 -24.22133,9.69646 -2.93911,4.79356 -8.96667,7.28787 -8.80123,14.15947 -3.4801,0.37392 -5.71579,-1.76713 -8.09616,-3.26075 -14.13409,-8.86881 -28.21596,-17.83303 -42.30893,-26.77686 -5.13599,-3.25944 -10.46605,-5.84773 -16.64517,-4.86502 -11.36006,1.80668 -17.38597,10.54834 -17.59632,25.9272 -0.1903,13.91613 -0.0538,27.83715 -0.13025,41.75557 -0.011,2.00086 0.55911,4.50304 -1.69104,5.58526 -2.35129,1.13086 -4.8703,0.45605 -6.30145,-1.64868 -4.35731,-6.40808 -10.57629,-6.91973 -16.8175,-5.77947 -7.68036,1.40318 -15.93127,1.61591 -21.93123,8.33559 -2.63985,-1.39202 -1.69241,-3.96381 -2.01235,-6.59226 z"
     id="path3"
     style="fill:#003b45;fill-opacity:1;stroke-width:1.10638" /><path
     fill="#000000"
     opacity="1"
     stroke="none"
     d="m 129.47148,676.96957 c 0.008,4.57706 0.0681,8.58399 0.009,12.58903 -0.16283,11.16576 -5.38943,17.69711 -14.09906,17.69816 -8.68083,10e-4 -13.98227,-6.68741 -13.96995,-17.79226 0.0727,-65.43163 0.23174,-130.86334 0.23941,-196.29498 0.007,-62.76163 -0.14225,-125.52323 -0.2021,-188.28486 -0.01,-10.44263 3.09963,-15.5702 10.4571,-17.53286 7.75149,-2.06781 15.82775,3.7869 16.77556,12.30121 0.39969,3.59031 0.65257,7.22289 0.65582,10.83664 0.0454,50.36181 0.052,100.72371 0.0126,151.08553 -0.003,4.57007 -0.51168,9.13854 -0.55209,13.71012 -0.0234,2.65215 -1.33653,4.05227 -3.12535,5.53917 -5.64443,4.69178 -10.83482,9.89923 -15.10259,16.10063 -11.290816,16.40645 -7.92303,34.52457 9.27439,43.44375 7.35916,3.81677 9.04777,8.24307 9.13218,16.4357 0.41067,39.86501 0.4187,79.72904 0.49448,120.16502 z"
     id="path4"
     style="fill:#001e24;fill-opacity:1;stroke-width:1.10638" /><path
     fill="#000000"
     opacity="1"
     stroke="none"
     d="m 150.4516,292.38984 c -0.003,-25.17995 -0.11653,-49.78844 0.0415,-74.39492 0.0785,-12.21894 11.64796,-18.96013 21.26794,-12.62791 4.3134,2.83923 6.21593,7.05464 6.18788,12.48494 -0.0817,15.83233 -0.0533,31.66541 -0.0546,47.49818 -0.005,55.70113 -0.0572,111.4024 0.0899,167.10307 0.0125,4.73139 -1.19285,7.61817 -5.06752,10.13598 -7.2393,4.70421 -14.08389,10.1042 -22.46419,16.21466 0,-56.26757 0,-111.05463 -8.4e-4,-166.414 z"
     id="path5"
     style="fill:#001e24;fill-opacity:1;stroke-width:1.10638" /><path
     fill="#000000"
     opacity="1"
     stroke="none"
     d="m 150.46308,773.98703 c -0.002,-71.93427 -0.002,-143.32998 -0.002,-215.75208 9.13321,4.85944 17.23257,9.10354 25.26893,13.4801 2.81811,1.53477 2.10441,4.58216 2.10768,7.15904 0.0472,37.17824 0.0529,74.35648 0.0686,111.53472 0.0117,27.83598 0.0299,55.67203 0.0322,83.50801 9.1e-4,10.77454 -4.33067,16.51639 -12.61538,16.79003 -8.94738,0.29565 -14.2856,-5.51781 -14.86033,-16.71982 z"
     id="path6"
     style="fill:#001e24;fill-opacity:1;stroke-width:1.10638" /><path
     fill="#000000"
     opacity="1"
     stroke="none"
     d="m 80.558815,392.18586 c 0.28062,3.12476 0.672131,5.7765 0.665032,8.42709 -0.167483,62.5067 -0.375878,125.01328 -0.582559,187.51992 -0.03476,10.51165 -4.588835,16.36989 -12.952299,16.70982 -8.042838,0.32674 -14.050821,-6.33447 -14.123804,-16.4899 -0.183533,-25.54218 -0.09217,-51.08652 -0.109056,-76.63003 -0.02431,-36.79047 -0.04892,-73.58091 -0.06441,-110.37138 -7.99e-4,-1.90472 -0.03893,-3.8233 0.148049,-5.71185 0.783161,-7.90998 4.894487,-13.11362 11.092276,-14.17756 7.051293,-1.21048 12.850937,2.53979 15.926771,10.72389 z"
     id="path7"
     style="fill:#001e24;fill-opacity:1;stroke-width:1.10638" /><path
     fill="#000000"
     opacity="1"
     stroke="none"
     d="m 28.698517,428.89216 c 2.84445,3.54717 3.612313,7.387 3.616531,11.49469 0.03559,34.68237 0.117574,69.3648 0.08371,104.04712 -0.0088,9.05556 -6.000553,15.64858 -13.811782,15.65934 -7.624235,0.0107 -13.5226592,-6.74092 -13.5385939,-15.88645 -0.060422,-34.68233 0.00237,-69.36489 -0.051673,-104.0473 -0.010587,-6.79394 2.5973444,-11.72244 8.2856629,-14.72345 5.766934,-3.04249 10.676127,-1.13861 15.416149,3.45605 z"
     id="path8"
     style="fill:#001e24;fill-opacity:1;stroke-width:1.10638" /><path
     fill="#000000"
     opacity="1"
     stroke="none"
     d="m 207.03145,318.90216 c 11.11659,-4.03343 19.99706,2.48711 20.03333,14.41248 0.0746,24.55825 -0.0458,49.11738 0.0966,73.67494 0.0223,3.84042 -1.21209,5.67509 -4.5136,7.19698 -7.44054,3.42981 -14.63867,7.46202 -21.83649,11.19783 -1.66693,-1.63887 -1.17625,-3.46024 -1.17868,-5.08219 -0.0431,-28.74662 0.0248,-57.49358 -0.097,-86.23968 -0.0273,-6.46078 1.94941,-11.49037 7.49575,-15.16036 z"
     id="path9"
     style="fill:#001e24;fill-opacity:1;stroke-width:1.10638" /><path
     fill="#000000"
     opacity="1"
     stroke="none"
     d="m 227.18202,651.51102 c 0.002,4.72216 0.18961,8.92016 -0.0476,13.09035 -0.4306,7.57031 -6.28464,13.35275 -13.39578,13.5355 -6.86299,0.1764 -13.1332,-5.11443 -13.97323,-12.33348 -0.59179,-5.08572 -0.68884,-10.25917 -0.71233,-15.39498 -0.0872,-19.0582 -0.077,-38.11702 -0.0341,-57.17544 0.006,-2.58519 -0.55275,-5.36404 1.80823,-8.33682 5.82715,3.14045 11.56033,7.11727 17.83335,9.37907 7.30939,2.63557 8.92787,7.34788 8.63332,14.96744 -0.53687,13.88852 -0.13053,27.8188 -0.1118,42.26836 z"
     id="path10"
     style="fill:#001e24;fill-opacity:1;stroke-width:1.10638" /></g></svg>
